<svg width="24" height="28" viewBox="0 0 24 28" fill="none" xmlns="http://www.w3.org/2000/svg">
<g clip-path="url(#clip0_30_6392)">
<path d="M17.7862 10.1957C19.5373 11.4468 21.6825 12.1829 23.9993 12.1829V7.727C23.5608 7.72709 23.1235 7.68134 22.6945 7.5905V11.098C20.3778 11.098 18.2329 10.3619 16.4815 9.11094V18.2043C16.4815 22.7533 12.7919 26.4407 8.24088 26.4407C6.54279 26.4407 4.96441 25.9276 3.65332 25.0476C5.14976 26.5769 7.23663 27.5256 9.54532 27.5256C14.0967 27.5256 17.7864 23.8382 17.7864 19.289V10.1957H17.7862ZM19.3959 5.70022C18.501 4.72306 17.9134 3.46025 17.7862 2.06412V1.49103H16.5498C16.861 3.26544 17.9227 4.78138 19.3959 5.70022ZM6.53182 21.5569C6.03184 20.9017 5.76157 20.1001 5.76279 19.276C5.76279 17.1955 7.45038 15.5085 9.53248 15.5085C9.92043 15.5083 10.3061 15.5679 10.6759 15.6851V11.1295C10.2438 11.0703 9.80763 11.0451 9.37169 11.0544V14.6002C9.00169 14.4829 8.61581 14.4234 8.22766 14.4238C6.14566 14.4238 4.45816 16.1105 4.45816 18.1913C4.45816 19.6626 5.30163 20.9364 6.53182 21.5569Z" fill="#FF004F"/>
<path d="M16.4815 9.11084C18.233 10.3618 20.3778 11.0979 22.6945 11.0979V7.59041C21.4013 7.31506 20.2565 6.63969 19.3958 5.70022C17.9225 4.78128 16.861 3.26534 16.5498 1.49103H13.302V19.2888C13.2946 21.3637 11.6099 23.0437 9.53228 23.0437C8.30809 23.0437 7.22041 22.4605 6.53163 21.5568C5.30163 20.9364 4.45806 19.6625 4.45806 18.1914C4.45806 16.1108 6.14556 14.4238 8.22756 14.4238C8.62647 14.4238 9.01094 14.4859 9.37159 14.6003V11.0545C4.90047 11.1468 1.30469 14.7982 1.30469 19.2889C1.30469 21.5307 2.20009 23.5629 3.65341 25.0478C4.9645 25.9276 6.54278 26.4409 8.24097 26.4409C12.7921 26.4409 16.4816 22.7532 16.4816 18.2043L16.4815 9.11084Z" fill="black"/>
<path d="M22.6945 7.59031V6.64213C21.5284 6.64389 20.3852 6.31748 19.3958 5.70022C20.2717 6.65854 21.4249 7.3194 22.6945 7.5905M16.5497 1.49094C16.52 1.3214 16.4973 1.15073 16.4814 0.979344V0.40625H11.997V18.2042C11.9899 20.2789 10.3052 21.9589 8.2275 21.9589C7.63849 21.9598 7.05754 21.8221 6.53156 21.557C7.22034 22.4605 8.30803 23.0436 9.53222 23.0436C11.6097 23.0436 13.2946 21.3638 13.3019 19.2889V1.49103L16.5497 1.49094ZM9.37181 11.0544V10.0448C8.99709 9.99356 8.6193 9.96794 8.24109 9.96809C3.68953 9.96809 0 13.6557 0 18.2042C0 21.056 1.45003 23.5693 3.65353 25.0476C2.20022 23.5628 1.30481 21.5305 1.30481 19.2888C1.30481 14.7982 4.9005 11.1467 9.37181 11.0544Z" fill="#00F2EA"/>
</g>
<defs>
<clipPath id="clip0_30_6392">
<rect width="24" height="27.1875" fill="white" transform="translate(0 0.40625)"/>
</clipPath>
</defs>
</svg>
