<svg width="24" height="24" viewBox="0 0 24 24" fill="none" xmlns="http://www.w3.org/2000/svg">
<path fill-rule="evenodd" clip-rule="evenodd" d="M3.375 0.46875L12.0469 1.937L20.7188 0.46875V18.2224C20.7188 19.2968 20.0413 20.2706 18.9898 20.7077L12.0469 23.5938L5.10398 20.7077C4.05244 20.2706 3.375 19.2968 3.375 18.2224V0.46875Z" fill="#11316E"/>
<path fill-rule="evenodd" clip-rule="evenodd" d="M7.87146 18.6384V6.25L10.8424 14.3437H9.47736L10.8424 16.3259L12.0468 14.0134L13.2512 16.3259L14.6163 14.3437H13.2512L16.2222 6.25V18.6384H14.1345L12.0468 20.6206L9.95913 18.6384H7.87146ZM8.67439 13.5178V10.5447L9.63794 13.5178H8.67439ZM8.67439 15.3348V17.6473H10.2803L8.67439 15.3348ZM15.4192 10.5447V13.5178H14.4556L15.4192 10.5447ZM15.4192 17.6473V15.3348L13.8133 17.6473H15.4192ZM12.0468 19.2991L10.9227 18.1428L12.0468 15.9955L13.171 18.1428L12.0468 19.2991Z" fill="#FFF421"/>
<path d="M5.14148 2.45088L7.55033 5.91965V10.875L5.30207 5.25892L5.14148 2.45088Z" fill="#FFF421"/>
<path d="M7.55037 11.7009L5.62329 6.91075L5.78388 11.0402L7.55037 14.3438V11.7009Z" fill="#FFF421"/>
<path d="M7.55036 14.9632L5.94446 12.0312V14.4728L7.55036 17.317V14.9632Z" fill="#FFF421"/>
<path d="M18.9523 2.45088L16.5435 5.91965V10.875L18.7917 5.25892L18.9523 2.45088Z" fill="#FFF421"/>
<path d="M16.5435 11.7009L18.4705 6.91075L18.3099 11.0402L16.5435 14.3438V11.7009Z" fill="#FFF421"/>
<path d="M16.5435 14.9632L18.1493 12.0312V14.4728L16.5435 17.317V14.9632Z" fill="#FFF421"/>
<path d="M12.0469 6.25L11.0834 7.7366L12.0469 13.5178L13.0105 7.7366L12.0469 6.25Z" fill="#FFF421"/>
</svg>
